<svg width="24" height="24" viewBox="0 0 24 24" fill="none" xmlns="http://www.w3.org/2000/svg">
<path d="M12.0003 3C10.2101 3 8.49318 3.71116 7.2273 4.97703C5.96143 6.2429 5.25028 7.95979 5.25028 9.75V12.9673C5.25028 13.2216 5.20179 13.4736 5.10741 13.7097L3.80353 16.9718C3.75806 17.0856 3.74117 17.2088 3.75435 17.3306C3.76753 17.4525 3.81036 17.5693 3.87912 17.6707C3.94787 17.7722 4.04044 17.8552 4.14872 17.9126C4.25701 17.9701 4.37771 18 4.50028 18H9.00028C9.00028 19.6628 10.3375 21 12.0003 21C13.663 21 15.0003 19.6628 15.0003 18H19.5003C19.6228 18 19.7435 17.9701 19.8518 17.9126C19.9601 17.8552 20.0527 17.7722 20.1214 17.6707C20.1902 17.5693 20.233 17.4525 20.2462 17.3306C20.2594 17.2088 20.2425 17.0856 20.197 16.9718L18.8931 13.7097C18.7988 13.4736 18.7503 13.2216 18.7503 12.9673V9.75C18.7503 7.95979 18.0391 6.2429 16.7732 4.97703C15.5074 3.71116 13.7905 3 12.0003 3ZM13.5003 18C13.5003 18.834 12.8343 19.5 12.0003 19.5C11.1663 19.5 10.5003 18.834 10.5003 18H13.5003ZM6.75028 9.75C6.75028 8.35761 7.3034 7.02226 8.28796 6.03769C9.27253 5.05312 10.6079 4.5 12.0003 4.5C13.3927 4.5 14.728 5.05312 15.7126 6.03769C16.6972 7.02226 17.2503 8.35761 17.2503 9.75V13.4963C17.2502 13.5915 17.2683 13.686 17.3035 13.7745L18.3925 16.5H5.60803L6.69703 13.7745C6.7322 13.6862 6.75027 13.592 6.75028 13.497V9.75Z" fill="white"/>
</svg>
