<svg width="24" height="24" viewBox="0 0 24 24" fill="none" xmlns="http://www.w3.org/2000/svg">
<path d="M9.00002 16.1698L5.53002 12.6998C5.34305 12.5129 5.08945 12.4078 4.82502 12.4078C4.5606 12.4078 4.307 12.5129 4.12002 12.6998C3.93305 12.8868 3.828 13.1404 3.828 13.4048C3.828 13.5358 3.85379 13.6654 3.9039 13.7864C3.954 13.9073 4.02744 14.0173 4.12002 14.1098L8.30002 18.2898C8.69002 18.6798 9.32002 18.6798 9.71002 18.2898L20.29 7.70983C20.477 7.52286 20.582 7.26926 20.582 7.00483C20.582 6.74041 20.477 6.48681 20.29 6.29983C20.103 6.11286 19.8494 6.00781 19.585 6.00781C19.3206 6.00781 19.067 6.11286 18.88 6.29983L9.00002 16.1698Z" fill="#1B1B1B"/>
</svg>
