<svg width="25" height="24" viewBox="0 0 25 24" fill="none" xmlns="http://www.w3.org/2000/svg">
<path fill-rule="evenodd" clip-rule="evenodd" d="M5.21973 8.59968C5.21973 7.81893 5.83276 7.1639 6.67923 7.16249C7.52579 7.16099 8.07264 7.1639 8.07264 7.1639C8.07264 7.1639 8.03626 6.32952 8.03626 5.66596C8.03626 5.00221 8.62004 4.33799 9.46707 4.33799C10.3141 4.33799 18.1673 4.31362 18.9637 4.37268C19.7601 4.43174 20.3939 4.93265 20.3939 5.73834C20.3939 6.54402 20.3889 14.5327 20.3889 15.2727C20.3889 16.0126 19.7251 16.6849 18.9022 16.6941C18.0792 16.7035 17.5215 16.6848 17.5215 16.6848C17.5215 16.6848 17.5518 17.6195 17.5518 18.1936C17.5518 18.7676 16.8843 19.6013 16.1011 19.6013C15.3179 19.6013 7.37139 19.6521 6.61314 19.6521C5.85489 19.6521 5.15514 18.985 5.18748 18.1534C5.21982 17.3217 5.21973 9.38024 5.21973 8.59968ZM9.53786 5.92902L9.53148 15.1319C9.53148 15.2346 9.61529 15.3185 9.71889 15.3179L18.6772 15.2701C18.727 15.2699 18.7747 15.2499 18.8098 15.2146C18.8449 15.1793 18.8646 15.1315 18.8645 15.0816L18.8585 5.96137C18.8584 5.91144 18.8385 5.86358 18.8032 5.8283C18.7679 5.79302 18.72 5.77321 18.67 5.77321L9.72629 5.74265C9.70165 5.7424 9.67721 5.74704 9.65437 5.75629C9.63153 5.76554 9.61075 5.77923 9.59323 5.79656C9.57571 5.81389 9.56179 5.83451 9.55229 5.85725C9.54278 5.87999 9.53788 5.90438 9.53786 5.92902ZM6.66892 8.98124L6.75479 18.0043C6.75541 18.054 6.77567 18.1015 6.81116 18.1363C6.84664 18.1711 6.89446 18.1904 6.94417 18.1901L15.7684 18.1231C15.8176 18.1228 15.8662 18.1128 15.9115 18.0936C15.9567 18.0745 15.9978 18.0466 16.0322 18.0115C16.0667 17.9764 16.0938 17.9349 16.1122 17.8892C16.1305 17.8436 16.1396 17.7948 16.139 17.7456L16.1261 16.7016C16.1261 16.7016 10.2314 16.7557 9.46482 16.7557C8.69823 16.7557 8.01751 16.0301 8.01751 15.2136C8.01751 14.397 8.07264 8.77293 8.07264 8.77293C8.07357 8.6698 7.9907 8.58637 7.88739 8.58777L7.04111 8.59996C6.94124 8.60132 6.84598 8.64222 6.77622 8.71369C6.70645 8.78516 6.66787 8.88137 6.66892 8.98124Z" fill="white"/>
</svg>
