<svg width="18" height="18" viewBox="0 0 18 18" fill="none" xmlns="http://www.w3.org/2000/svg">
<g filter="url(#filter0_d_532_7417)">
<path d="M13.8535 13.146C13.9 13.1925 13.9368 13.2476 13.962 13.3083C13.9871 13.369 14.0001 13.4341 14.0001 13.4998C14.0001 13.5655 13.9871 13.6305 13.962 13.6912C13.9368 13.7519 13.9 13.8071 13.8535 13.8535C13.8071 13.9 13.7519 13.9368 13.6912 13.962C13.6305 13.9871 13.5655 14.0001 13.4998 14.0001C13.4341 14.0001 13.369 13.9871 13.3083 13.962C13.2476 13.9368 13.1925 13.9 13.146 13.8535L8.99979 9.70666L4.85354 13.8535C4.75972 13.9474 4.63247 14.0001 4.49979 14.0001C4.36711 14.0001 4.23986 13.9474 4.14604 13.8535C4.05222 13.7597 3.99951 13.6325 3.99951 13.4998C3.99951 13.3671 4.05222 13.2399 4.14604 13.146L8.29291 8.99979L4.14604 4.85354C4.05222 4.75972 3.99951 4.63247 3.99951 4.49979C3.99951 4.36711 4.05222 4.23986 4.14604 4.14604C4.23986 4.05222 4.36711 3.99951 4.49979 3.99951C4.63247 3.99951 4.75972 4.05222 4.85354 4.14604L8.99979 8.29291L13.146 4.14604C13.2399 4.05222 13.3671 3.99951 13.4998 3.99951C13.6325 3.99951 13.7597 4.05222 13.8535 4.14604C13.9474 4.23986 14.0001 4.36711 14.0001 4.49979C14.0001 4.63247 13.9474 4.75972 13.8535 4.85354L9.70666 8.99979L13.8535 13.146Z" fill="white"/>
</g>
<defs>
<filter id="filter0_d_532_7417" x="-3" y="-3" width="24" height="24" filterUnits="userSpaceOnUse" color-interpolation-filters="sRGB">
<feFlood flood-opacity="0" result="BackgroundImageFix"/>
<feColorMatrix in="SourceAlpha" type="matrix" values="0 0 0 0 0 0 0 0 0 0 0 0 0 0 0 0 0 0 127 0" result="hardAlpha"/>
<feOffset/>
<feGaussianBlur stdDeviation="2"/>
<feComposite in2="hardAlpha" operator="out"/>
<feColorMatrix type="matrix" values="0 0 0 0 0 0 0 0 0 0 0 0 0 0 0 0 0 0 0.25 0"/>
<feBlend mode="normal" in2="BackgroundImageFix" result="effect1_dropShadow_532_7417"/>
<feBlend mode="normal" in="SourceGraphic" in2="effect1_dropShadow_532_7417" result="shape"/>
</filter>
</defs>
</svg>
