<svg width="19" height="18" viewBox="0 0 19 18" fill="none" xmlns="http://www.w3.org/2000/svg">
<g clip-path="url(#clip0_211_7565)">
<path d="M15.6656 4.69721C15.1073 3.55137 13.4989 2.61387 11.6281 3.15971C10.7341 3.41793 9.95414 3.9717 9.41559 4.73054C8.87705 3.9717 8.09707 3.41793 7.20309 3.15971C5.32809 2.62221 3.72393 3.55137 3.16559 4.69721C2.38226 6.30137 2.70726 8.10554 4.13226 10.0597C5.24893 11.5889 6.84476 13.1389 9.16143 14.9389C9.23464 14.996 9.32483 15.027 9.41768 15.027C9.51053 15.027 9.60071 14.996 9.67393 14.9389C11.9864 13.143 13.5864 11.6055 14.7031 10.0597C16.1239 8.10554 16.4489 6.30137 15.6656 4.69721Z" fill="black"/>
</g>
<defs>
<clipPath id="clip0_211_7565">
<rect width="18" height="18" fill="white" transform="translate(0.5)"/>
</clipPath>
</defs>
</svg>
