<svg width="16" height="18" viewBox="0 0 16 18" fill="none" xmlns="http://www.w3.org/2000/svg">
<path id="Vector" d="M3.34375 2.54687C3.3744 2.58789 3.41696 2.61845 3.46563 2.63436C3.5143 2.65027 3.5667 2.65077 3.61566 2.63578C3.66462 2.62079 3.70776 2.59104 3.73917 2.55061C3.77059 2.51018 3.78875 2.46103 3.79118 2.40988L3.86741 1.26702C3.87054 1.22648 3.86384 1.18578 3.84787 1.14839C3.83189 1.111 3.80712 1.07802 3.77567 1.05225C3.74421 1.02649 3.70699 1.00871 3.66718 1.00042C3.62738 0.992129 3.58615 0.993579 3.54703 1.00464L2.79579 1.2383C2.75693 1.25108 2.72165 1.2729 2.69286 1.30197C2.66407 1.33103 2.64259 1.36652 2.63019 1.40551C2.61779 1.44449 2.61481 1.48587 2.62152 1.52623C2.62822 1.56659 2.64441 1.60478 2.66874 1.63766L3.34375 2.54687ZM2.04014 3.44282L1.01271 3.01197C0.975528 2.99685 0.942634 2.97282 0.916929 2.94199C0.891223 2.91116 0.873496 2.87449 0.865309 2.83519C0.857123 2.7959 0.858728 2.75519 0.869984 2.71666C0.881241 2.67813 0.901802 2.64297 0.929855 2.61426L1.46566 2.04531C1.4932 2.01625 1.52736 1.99427 1.56522 1.98124C1.60309 1.96821 1.64354 1.96452 1.68313 1.97049C1.72273 1.97646 1.7603 1.9919 1.79264 2.01551C1.82498 2.03911 1.85115 2.07018 1.8689 2.10608L2.36052 3.10587C2.38178 3.15135 2.38883 3.20218 2.38076 3.25173C2.37269 3.30129 2.34987 3.34725 2.31527 3.38363C2.28068 3.42002 2.23592 3.44513 2.18684 3.45568C2.13776 3.46624 2.08663 3.46176 2.04014 3.44282ZM15.3646 5.72798C15.5495 5.8879 15.7004 6.08326 15.8085 6.30252C15.9166 6.52178 15.9796 6.76049 15.9938 7.00452V12.2217C16.0363 13.0435 15.8597 13.862 15.4819 14.5931C15.1042 15.3243 14.5389 15.9419 13.8439 16.3827C13.1561 16.7936 12.3687 17.0078 11.5676 17.0019C11.0297 17.0011 10.4957 16.9104 9.98777 16.7335C9.5024 16.9123 8.9893 17.0041 8.47204 17.0047C7.75123 17.0113 7.03906 16.8475 6.3936 16.5266C5.74814 16.2057 5.18765 15.7368 4.75784 15.1581L2.84053 12.0278L1.45959 9.69678C1.26697 9.32475 1.20817 8.89778 1.29306 8.48753C1.37795 8.07728 1.60135 7.70871 1.92579 7.44365C2.05008 7.35914 2.1821 7.28733 2.32075 7.22878C2.19771 6.87747 2.19032 6.49602 2.29965 6.1402C2.40898 5.78439 2.62929 5.4729 2.92836 5.25129C3.04989 5.17672 3.17693 5.11319 3.3095 5.06182C3.29183 4.91876 3.29293 4.77459 3.31337 4.63152C3.35047 4.37582 3.44408 4.13159 3.58741 3.91661C3.73073 3.70162 3.92017 3.52127 4.14194 3.38868C4.44709 3.21806 4.79591 3.14154 5.14446 3.16877C5.49302 3.196 5.82572 3.32575 6.10068 3.54169C6.19348 3.44282 6.29953 3.3572 6.41498 3.28594C6.77127 3.07245 7.19707 3.0072 7.60094 3.10421C7.83901 3.04057 8.08701 3.02276 8.33174 3.05174C8.64577 3.08567 8.94215 3.21392 9.18185 3.41962C9.2763 3.31909 9.38402 3.23126 9.50167 3.15835C9.87994 2.9355 10.3311 2.87159 10.7564 2.9806C11.1816 3.08961 11.5464 3.36267 11.7708 3.73999L12.9154 5.78377C13.0658 5.6291 13.2452 5.50558 13.4434 5.42028C13.6416 5.33498 13.8547 5.28956 14.0704 5.28664C14.5427 5.26092 15.0067 5.41877 15.3646 5.72798ZM8.82004 7.81043H8.81672L8.79629 7.82424L8.81065 7.8154L8.82004 7.81043ZM5.05171 4.27138C4.93627 4.26314 4.82064 4.28463 4.71586 4.3338V4.33159C4.63333 4.37847 4.56253 4.44351 4.50885 4.52179C4.45516 4.60008 4.41998 4.68954 4.40598 4.78343C4.39156 4.89019 4.41439 4.99865 4.47061 5.09055L5.29034 6.33615C5.30731 6.09817 5.37814 5.86717 5.49747 5.66057C5.61679 5.45398 5.7815 5.2772 5.97915 5.14357C6.00567 5.127 6.03218 5.1154 6.05814 5.10325C6.07582 5.09552 6.09405 5.08668 6.11228 5.07729C5.96939 5.05891 5.83944 4.98511 5.75047 4.87181L5.40855 4.42991C5.39638 4.41418 5.38513 4.39777 5.37485 4.38075C5.27823 4.31731 5.16699 4.27966 5.05171 4.27138ZM3.78786 6.06659C3.68635 6.09576 3.5896 6.13949 3.50063 6.1964L3.50228 6.19419C3.41961 6.29409 3.36532 6.41438 3.34511 6.54246C3.3249 6.67055 3.3395 6.80171 3.38739 6.92221C3.45754 7.05699 3.50947 7.15421 3.54924 7.22933L3.5531 7.23596L4.3292 8.40257C4.38996 8.08165 4.538 7.78336 4.75674 7.54087L3.78786 6.06659ZM3.7851 11.4605L5.67866 14.5538L5.68032 14.5516C6.01135 14.9877 6.44251 15.3378 6.93737 15.5722C7.43222 15.8066 7.97622 15.9184 8.52341 15.8983C8.26148 15.6766 8.0284 15.4229 7.82962 15.1432L5.89298 11.982L5.07491 10.601C4.95546 10.6673 4.81551 10.6865 4.68261 10.6549C4.54971 10.6232 4.43348 10.5429 4.35682 10.4298L2.87312 8.20648C2.7538 8.23588 2.64127 8.28802 2.5417 8.36004C2.45471 8.46563 2.39637 8.59183 2.37228 8.72649C2.34819 8.86115 2.35917 8.99975 2.40416 9.12894L3.7851 11.46V11.4605ZM10.839 15.8425C11.6704 16.0088 12.5338 15.8664 13.2678 15.442L13.2695 15.4398C13.7927 15.1032 14.2181 14.6347 14.5029 14.0815C14.7876 13.5284 14.9218 12.91 14.8918 12.2885V7.03932C14.8828 6.94448 14.8551 6.85236 14.8102 6.76834C14.7653 6.68432 14.7041 6.61008 14.6303 6.54993C14.5564 6.48978 14.4713 6.44494 14.3799 6.418C14.2885 6.39107 14.1927 6.38258 14.098 6.39304C13.9563 6.39581 13.8205 6.45067 13.7165 6.54714C13.6126 6.64362 13.5479 6.77497 13.5346 6.91614C13.7489 7.30114 13.9268 7.6182 14.0146 7.77011C14.0807 7.89635 14.0954 8.04322 14.0557 8.18005C14.016 8.31688 13.9249 8.43307 13.8016 8.50437C13.6782 8.57567 13.5321 8.59655 13.3937 8.56266C13.2554 8.52876 13.1354 8.44271 13.059 8.32248C12.8841 8.01611 12.7112 7.70862 12.5403 7.40002L12.5011 7.32987V7.29672C12.4989 7.29231 12.4956 7.28954 12.4928 7.28568C12.4895 7.28181 12.4856 7.27794 12.4829 7.27297L10.8257 4.3128C10.7829 4.22257 10.7149 4.14666 10.6299 4.09422C10.5449 4.04179 10.4465 4.01507 10.3466 4.01728C10.2468 4.0195 10.1497 4.05057 10.0671 4.10673C9.98452 4.16289 9.91993 4.24175 9.88116 4.3338L10.4468 5.2419L10.5081 5.34132C10.9312 6.02493 11.358 6.7062 11.7885 7.3851C11.8646 7.50805 11.8895 7.65595 11.8578 7.79704C11.8261 7.93812 11.7403 8.06114 11.6189 8.13968C11.4974 8.21822 11.3501 8.24601 11.2084 8.21708C11.0667 8.18816 10.942 8.10483 10.8611 7.98498C10.4275 7.30101 9.99716 6.61496 9.57017 5.92684L9.09678 5.16677L8.87251 4.80607L8.86533 4.79503L8.84931 4.76851C8.84711 4.76575 8.84434 4.76409 8.84158 4.76188C8.83835 4.75923 8.83539 4.75627 8.83274 4.75305L8.48751 4.30397C8.47577 4.28806 8.46471 4.27166 8.45436 4.25481C8.38205 4.18865 8.2883 4.15079 8.19033 4.1482C8.05126 4.12483 7.90838 4.14409 7.78046 4.20343C7.69652 4.2513 7.62453 4.31757 7.5699 4.39727C7.51527 4.47697 7.47942 4.56801 7.46505 4.66356C7.45102 4.76581 7.4704 4.86985 7.52029 4.96019C7.77684 5.06205 8.01367 5.20784 8.22015 5.39104C8.39029 5.56448 8.54054 5.75726 8.66758 5.9655C8.8217 6.19805 8.9957 6.48308 9.16804 6.77031C9.29674 6.98574 9.42434 7.20172 9.5431 7.40333L9.58785 7.47901C9.77565 7.79552 9.93474 8.06342 10.0402 8.22692C10.0798 8.28782 10.107 8.35591 10.1203 8.42731C10.1335 8.49872 10.1326 8.57203 10.1175 8.64307C10.1024 8.71411 10.0735 8.78149 10.0324 8.84135C9.99125 8.90121 9.93874 8.95239 9.87784 8.99196C9.81695 9.03153 9.74885 9.05871 9.67745 9.07197C9.60604 9.08522 9.53273 9.08428 9.46169 9.0692C9.39065 9.05412 9.32327 9.0252 9.26341 8.98408C9.20355 8.94296 9.15237 8.89045 9.1128 8.82956C8.98631 8.63402 8.79518 8.30922 8.58914 7.96068L8.51236 7.83032L8.51181 7.82976C8.41625 7.66792 8.31848 7.50221 8.22181 7.34147C8.05168 7.05699 7.88707 6.78909 7.74677 6.57643C7.67424 6.46103 7.59551 6.34965 7.5109 6.2428C7.5045 6.23471 7.49712 6.22697 7.48991 6.2196C7.36836 6.10992 7.227 6.02443 7.07342 5.96771C7.03247 5.96174 6.99228 5.95137 6.95355 5.93678C6.81104 5.95335 6.6746 6.00583 6.55694 6.08813C6.47201 6.18963 6.41597 6.31212 6.39468 6.44274C6.3734 6.57337 6.38766 6.70731 6.43597 6.83052L6.61107 7.15642C6.84363 7.2553 7.06016 7.38897 7.25294 7.55302C7.40153 7.6983 7.53134 7.86125 7.63961 8.03801C7.75892 8.22029 7.88597 8.43572 8.00915 8.65004C8.08317 8.77874 8.15608 8.908 8.22623 9.03283L8.2301 9.03946L8.25219 9.07923C8.41404 9.36536 8.55876 9.62111 8.67697 9.80394C8.71808 9.86482 8.74663 9.93329 8.76096 10.0053C8.77528 10.0774 8.77509 10.1516 8.7604 10.2235C8.7457 10.2955 8.7168 10.3638 8.67538 10.4245C8.63397 10.4852 8.58086 10.537 8.51918 10.5769C8.4575 10.6168 8.38848 10.6439 8.31617 10.6568C8.24385 10.6697 8.16969 10.6681 8.09802 10.652C8.02635 10.6359 7.95861 10.6056 7.89877 10.563C7.83893 10.5204 7.7882 10.4663 7.74953 10.4038C7.57706 10.128 7.41257 9.84729 7.25625 9.56201C7.18767 9.44022 7.11863 9.3187 7.04911 9.19744C6.94276 9.00845 6.83095 8.8226 6.71382 8.64009C6.67162 8.57624 6.6276 8.51361 6.5818 8.45229C6.56198 8.42546 6.54039 8.4 6.51717 8.37606C6.39423 8.27434 6.25588 8.19286 6.10731 8.13467C6.06682 8.12794 6.02718 8.11683 5.9891 8.10153C5.84241 8.12816 5.70341 8.18682 5.58199 8.27332C5.49392 8.38095 5.43496 8.5094 5.41078 8.64636C5.3866 8.78332 5.398 8.92419 5.4439 9.05548L6.8381 11.4125L8.75099 14.5378C9.26516 15.2121 10.0075 15.676 10.839 15.8425ZM0.591247 3.79468L1.54742 4.43654C1.59056 4.46641 1.62361 4.50867 1.6422 4.55774C1.66079 4.6068 1.66405 4.66036 1.65153 4.71132C1.63902 4.76227 1.61132 4.80823 1.57212 4.8431C1.53291 4.87798 1.48404 4.90012 1.43197 4.90661L0.287991 5.05575C0.24677 5.06088 0.20492 5.05592 0.166042 5.04129C0.127164 5.02666 0.0924244 5.00281 0.064814 4.97177C0.0372036 4.94074 0.0175498 4.90346 0.00754509 4.86314C-0.00245965 4.82283 -0.00251551 4.78068 0.00738218 4.74034L0.196296 3.94934C0.206566 3.9092 0.226236 3.87208 0.253682 3.84104C0.281128 3.81 0.315563 3.78593 0.354145 3.77082C0.392726 3.75571 0.434348 3.75 0.475574 3.75415C0.5168 3.75829 0.556449 3.77219 0.591247 3.79468Z" fill="white" fill-opacity="0.95"/>
</svg>
