<svg width="24" height="24" viewBox="0 0 24 24" fill="none" xmlns="http://www.w3.org/2000/svg">
<path d="M12.0002 3.00001C10.21 3.00001 8.4931 3.71117 7.22723 4.97704C5.96136 6.24291 5.2502 7.9598 5.2502 9.75001V12.9669C5.2502 13.221 5.2018 13.4727 5.10758 13.7087L3.8042 16.9725C3.75891 17.0862 3.74215 17.2093 3.75536 17.331C3.76858 17.4527 3.81138 17.5693 3.88002 17.6706C3.94867 17.772 4.04108 17.855 4.14918 17.9124C4.25729 17.9698 4.3778 17.9999 4.5002 18H9.0002C9.0002 19.662 10.3382 21 12.0002 21C13.6622 21 15.0002 19.662 15.0002 18H19.5002C19.6226 17.9999 19.7431 17.9698 19.8512 17.9124C19.9593 17.855 20.0517 17.772 20.1204 17.6706C20.189 17.5693 20.2318 17.4527 20.245 17.331C20.2583 17.2093 20.2415 17.0862 20.1962 16.9725L18.8927 13.707C18.7986 13.4712 18.7502 13.2195 18.7502 12.9656V10.5C18.234 10.5008 17.7233 10.3945 17.2502 10.188V13.497C17.2504 13.5921 17.2688 13.6863 17.3042 13.7745L18.3932 16.5H5.6072L6.6962 13.7745C6.73163 13.6863 6.74996 13.5921 6.7502 13.497V9.75001C6.74994 8.77091 7.02349 7.81124 7.53993 6.97942C8.05637 6.1476 8.79514 5.47677 9.67277 5.04272C10.5504 4.60866 11.5319 4.42867 12.5065 4.52309C13.481 4.6175 14.4097 4.98255 15.1877 5.57701C15.3482 5.08951 15.6062 4.64401 15.9392 4.26751C14.7922 3.44122 13.4138 2.99768 12.0002 3.00001ZM13.5002 18C13.5002 18.834 12.8342 19.5 12.0002 19.5C11.1662 19.5 10.5002 18.834 10.5002 18H13.5002Z" fill="white"/>
<circle cx="18.8" cy="6.8" r="2.3" fill="#FFF626"/>
</svg>
