<svg width="16" height="17" viewBox="0 0 16 17" fill="none" xmlns="http://www.w3.org/2000/svg">
<g clip-path="url(#clip0_207_6735)">
<path d="M7.92497 13.8566C7.84314 13.8564 7.76369 13.829 7.69905 13.7788C5.63979 12.1788 4.22127 10.8011 3.22868 9.4418C1.96201 7.70476 1.67312 6.10106 2.36942 4.67513C2.86571 3.65661 4.29164 2.82328 5.95831 3.30847C6.75295 3.538 7.44626 4.03024 7.92497 4.70476C8.40368 4.03024 9.09699 3.538 9.89164 3.30847C11.5546 2.83069 12.9842 3.65661 13.4805 4.67513C14.1768 6.10106 13.8879 7.70476 12.6213 9.4418C11.6287 10.8011 10.2102 12.1788 8.1509 13.7788C8.08625 13.829 8.0068 13.8564 7.92497 13.8566ZM5.01016 3.91217C4.61358 3.89674 4.2203 3.98959 3.87251 4.18078C3.52472 4.37197 3.23557 4.65426 3.03608 4.99735C2.46201 6.17513 2.72127 7.48624 3.82868 9.00106C5.00555 10.5191 6.38364 11.8697 7.92497 13.0159C9.46605 11.8709 10.8441 10.5214 12.0213 9.00476C13.1324 7.48624 13.3879 6.17513 12.8139 5.00106C12.4435 4.26032 11.3324 3.67143 10.0953 4.01958C9.69869 4.1368 9.33098 4.33577 9.01586 4.60368C8.70075 4.87159 8.44522 5.20251 8.26571 5.57513C8.23781 5.64306 8.19034 5.70116 8.12934 5.74205C8.06834 5.78294 7.99656 5.80477 7.92312 5.80477C7.84968 5.80477 7.7779 5.78294 7.7169 5.74205C7.6559 5.70116 7.60843 5.64306 7.58053 5.57513C7.40237 5.20157 7.14728 4.86988 6.83197 4.60181C6.51666 4.33373 6.14825 4.13532 5.7509 4.01958C5.51015 3.94965 5.26085 3.9135 5.01016 3.91217Z" fill="white" fill-opacity="0.55"/>
<path d="M7.66496 13.8227L7.66498 13.8227C7.73933 13.8804 7.83069 13.9119 7.9248 13.9122L7.92515 13.9122C8.01925 13.9119 8.11061 13.8804 8.18496 13.8227L8.18498 13.8227C10.2464 12.221 11.6693 10.8396 12.6661 9.47456L12.6662 9.47453C13.94 7.72764 14.2389 6.10167 13.5304 4.65076C13.022 3.60741 11.5645 2.77003 9.8763 3.25507L9.87622 3.25509C9.09423 3.48097 8.4089 3.95745 7.92497 4.61016C7.44107 3.95748 6.75578 3.48102 5.97383 3.25512C4.28155 2.76248 2.82781 3.60762 2.3195 4.65076C1.611 6.10167 1.90994 7.72764 3.18379 9.47453L3.18381 9.47456C4.18064 10.8396 5.60356 12.221 7.66496 13.8227ZM5.008 3.96771L5.00986 3.96772C5.2554 3.96903 5.49956 4.00443 5.73536 4.07292C6.1252 4.18647 6.48664 4.38113 6.79598 4.64413C7.10495 4.90682 7.35499 5.23177 7.52975 5.59772C7.56192 5.6752 7.61626 5.74147 7.68597 5.7882C7.75612 5.83522 7.83867 5.86033 7.92312 5.86033C8.00757 5.86033 8.09012 5.83522 8.16027 5.7882C8.22995 5.74149 8.28427 5.67526 8.31645 5.59782C8.49255 5.23276 8.74304 4.90855 9.05185 4.646C9.36096 4.3832 9.72166 4.188 10.1107 4.07296C11.3244 3.73155 12.4067 4.31126 12.7641 5.02569C13.3252 6.17349 13.0813 7.46177 11.9769 8.97132C10.8114 10.4729 9.44843 11.8101 7.92498 12.9466C6.40129 11.8089 5.0383 10.4705 3.87306 8.96764C2.77288 7.46244 2.52499 6.17463 3.08513 5.02353C3.27951 4.68994 3.56092 4.41546 3.89927 4.22946C4.23822 4.04314 4.62151 3.95264 5.008 3.96771Z" stroke="white" stroke-opacity="0.55" stroke-width="0.111111"/>
</g>
<defs>
<clipPath id="clip0_207_6735">
<rect width="16" height="16" fill="white" transform="translate(0 0.5)"/>
</clipPath>
</defs>
</svg>
