<svg width="90" height="27" viewBox="0 0 90 27" fill="none" xmlns="http://www.w3.org/2000/svg">
	<path d="M25.2835 12.3158C25.3292 12.636 25.3521 12.9448 25.3521 13.2421C25.3521 13.791 25.3178 14.3971 25.2492 15.0603C24.8604 18.6281 23.6025 21.384 21.4755 23.328C19.3714 25.272 16.5355 26.244 12.9676 26.244C10.3146 26.244 8.00472 25.6723 6.03784 24.5287C4.07097 23.3623 2.57294 21.7843 1.54377 19.7945C0.514589 17.8048 0 15.5749 0 13.1049C0 10.6577 0.514589 8.43926 1.54377 6.44952C2.57294 4.45977 4.07097 2.89313 6.03784 1.7496C8.00472 0.583201 10.3146 0 12.9676 0C15.6206 0 17.8848 0.606071 19.7602 1.81821C21.6585 3.00749 23.0765 4.45977 24.0141 6.17507L20.1033 8.33634C19.4629 7.14707 18.5252 6.14076 17.2902 5.31742C16.078 4.47121 14.6258 4.0481 12.9333 4.0481C11.1723 4.0481 9.66284 4.47121 8.40495 5.31742C7.16994 6.14076 6.23224 7.23855 5.59187 8.61079C4.97436 9.98303 4.66561 11.4811 4.66561 13.1049C4.66561 14.7287 4.9858 16.2381 5.62617 17.6332C6.26655 19.0055 7.20425 20.1147 8.43926 20.9609C9.69714 21.7843 11.1952 22.1959 12.9333 22.1959C14.9688 22.1731 16.7299 21.6585 18.2164 20.6522C19.703 19.623 20.4921 18.0907 20.5836 16.0552H13.5851V12.3158H25.2835Z" fill="#FFF626" />
	<path d="M32.6954 10.6691C33.2672 9.63997 34.0791 8.86236 35.1311 8.33634C36.2061 7.78745 37.1438 7.513 37.9442 7.513V11.6297C36.9151 11.6297 36.0002 11.9156 35.1998 12.4874C34.3993 13.0591 33.7818 13.7795 33.3472 14.6486C32.9127 15.4948 32.6954 16.3068 32.6954 17.0844V25.9696H28.0984V7.54731H32.6954V10.6691Z" fill="#FFF626" />
	<path d="M51.9421 15.5063C51.7592 14.2713 51.3017 13.265 50.5699 12.4874C49.838 11.7098 48.8546 11.321 47.6196 11.321C46.3617 11.321 45.3211 11.6983 44.4977 12.4531C43.6744 13.2078 43.1598 14.2255 42.954 15.5063H51.9421ZM38.6657 16.8442C38.6657 15.1289 39.0202 13.5737 39.7292 12.1786C40.4382 10.7606 41.4674 9.63997 42.8167 8.81662C44.1661 7.97041 45.7556 7.54731 47.5853 7.54731C49.3234 7.54731 50.7528 7.9018 51.8735 8.61079C53.017 9.31978 53.7946 9.98303 54.2063 10.6005C54.618 11.218 54.9953 11.8584 55.3384 12.5217C56.0017 14.1912 56.3104 15.6435 56.2647 16.8785C56.2418 18.0907 56.2304 18.731 56.2304 18.7996H42.954C43.3199 19.8288 43.8917 20.6636 44.6693 21.304C45.4697 21.9444 46.4532 22.2645 47.6196 22.2645C48.8775 22.2645 49.8152 22.0473 50.4327 21.6127C51.0502 21.1553 51.439 20.778 51.5991 20.4806L55.3727 21.9558C54.8238 23.0993 53.8861 24.0713 52.5596 24.8718C51.2331 25.6723 49.575 26.0725 47.5853 26.0725C45.7556 26.0725 44.1661 25.6608 42.8167 24.8375C41.4674 23.9913 40.4382 22.8706 39.7292 21.4755C39.0202 20.0804 38.6657 18.5366 38.6657 16.8442Z" fill="#FFF626" />
	<path d="M71.8342 15.5063C71.6512 14.2713 71.1938 13.265 70.462 12.4874C69.7301 11.7098 68.7467 11.321 67.5117 11.321C66.2538 11.321 65.2132 11.6983 64.3898 12.4531C63.5665 13.2078 63.0519 14.2255 62.846 15.5063H71.8342ZM58.5578 16.8442C58.5578 15.1289 58.9123 13.5737 59.6213 12.1786C60.3303 10.7606 61.3595 9.63997 62.7088 8.81662C64.0582 7.97041 65.6477 7.54731 67.4773 7.54731C69.2155 7.54731 70.6449 7.9018 71.7656 8.61079C72.9091 9.31978 73.6867 9.98303 74.0984 10.6005C74.5101 11.218 74.8874 11.8584 75.2305 12.5217C75.8937 14.1912 76.2025 15.6435 76.1567 16.8785C76.1339 18.0907 76.1224 18.731 76.1224 18.7996H62.846C63.212 19.8288 63.7837 20.6636 64.5613 21.304C65.3618 21.9444 66.3453 22.2645 67.5117 22.2645C68.7695 22.2645 69.7072 22.0473 70.3247 21.6127C70.9422 21.1553 71.331 20.778 71.4911 20.4806L75.2648 21.9558C74.7159 23.0993 73.7782 24.0713 72.4517 24.8718C71.1252 25.6723 69.4671 26.0725 67.4773 26.0725C65.6477 26.0725 64.0582 25.6608 62.7088 24.8375C61.3595 23.9913 60.3303 22.8706 59.6213 21.4755C58.9123 20.0804 58.5578 18.5366 58.5578 16.8442Z" fill="#FFF626" />
	<path d="M90 24.9747C89.8628 25.0433 89.5883 25.1691 89.1767 25.3521C88.7878 25.535 88.3304 25.6723 87.8044 25.7638C87.2784 25.8781 86.6609 25.9353 85.9519 25.9353C84.8541 25.9353 83.8707 25.6723 83.0016 25.1462C82.1325 24.5974 81.4578 23.8541 80.9775 22.9164C80.4972 21.9787 80.2571 20.9381 80.2571 19.7945V11.5954H76.9637V7.85606H80.2571V2.916H84.9227V7.85606H89.211V11.5954H84.9227V19.7945C84.9227 20.3892 85.0599 20.8923 85.3344 21.304C85.6317 21.7157 86.0662 21.9215 86.638 21.9215C87.1412 21.9215 87.5528 21.83 87.873 21.647C88.2161 21.4641 88.3991 21.3726 88.4219 21.3726L90 24.9747Z" fill="#FFF626" />
</svg>
