<svg width="16" height="16" viewBox="0 0 16 16" fill="none" xmlns="http://www.w3.org/2000/svg">
<g id="icon/modify" clip-path="url(#clip0_78_3236)">
<g id="Group">
<path id="Vector" d="M10.69 2.00979C11.049 1.65072 11.5311 1.44163 12.0386 1.42491C12.546 1.4082 13.0408 1.58512 13.4227 1.91979L13.5187 2.00979L13.99 2.48112C14.3489 2.84007 14.5579 3.32204 14.5746 3.82935C14.5913 4.33665 14.4145 4.83133 14.08 5.21312L13.99 5.30912L6.51533 12.7845C6.40965 12.8901 6.28162 12.9708 6.14067 13.0205L6.03267 13.0518L3.06333 13.7371C2.95931 13.7612 2.85104 13.7599 2.74761 13.7334C2.64418 13.7069 2.54861 13.656 2.46893 13.585C2.38925 13.5139 2.32778 13.4248 2.28968 13.325C2.25159 13.2253 2.23798 13.1179 2.25 13.0118L2.26333 12.9365L2.948 9.96646C2.98182 9.82078 3.04789 9.68455 3.14133 9.56779L3.21533 9.48446L10.69 2.00979ZM10.2187 4.36646L4.22533 10.3598L3.80133 12.1985L5.64 11.7738L11.6333 5.78046L10.2187 4.36646ZM12.576 2.95246C12.4612 2.83767 12.3085 2.76872 12.1465 2.75853C11.9844 2.74834 11.8243 2.79762 11.696 2.89712L11.6333 2.95246L11.1613 3.42379L12.576 4.83779L13.0473 4.36646C13.1621 4.25166 13.2311 4.09893 13.2413 3.93691C13.2514 3.77489 13.2022 3.61472 13.1027 3.48646L13.0473 3.42379L12.576 2.95246Z" fill="white"/>
</g>
</g>
<defs>
<clipPath id="clip0_78_3236">
<rect width="16" height="16" fill="white"/>
</clipPath>
</defs>
</svg>
