<svg width="74" height="74" viewBox="0 0 74 74" fill="none" xmlns="http://www.w3.org/2000/svg">
<g filter="url(#filter0_d_207_6289)">
<circle cx="37" cy="37" r="30" fill="#FFF626"/>
<g clip-path="url(#clip0_207_6289)">
<path d="M46.3332 36.0789H37.7776V27.5234C37.7776 27.3171 37.6957 27.1193 37.5498 26.9734C37.4039 26.8275 37.2061 26.7456 36.9998 26.7456C36.7935 26.7456 36.5957 26.8275 36.4498 26.9734C36.304 27.1193 36.222 27.3171 36.222 27.5234V36.0789H27.6665C27.4602 36.0789 27.2624 36.1609 27.1165 36.3068C26.9706 36.4526 26.8887 36.6504 26.8887 36.8567C26.8849 36.9578 26.9027 37.0585 26.9411 37.1521C26.9795 37.2457 27.0375 37.33 27.1112 37.3993C27.1849 37.4686 27.2726 37.5213 27.3684 37.5538C27.4642 37.5863 27.5658 37.5979 27.6665 37.5878H36.222V46.1901C36.222 46.3964 36.304 46.5942 36.4498 46.74C36.5957 46.8859 36.7935 46.9679 36.9998 46.9679C37.2061 46.9679 37.4039 46.8859 37.5498 46.74C37.6957 46.5942 37.7776 46.3964 37.7776 46.1901V37.6345H46.3332C46.5394 37.6345 46.7373 37.5526 46.8831 37.4067C47.029 37.2608 47.1109 37.063 47.1109 36.8567C47.1109 36.6504 47.029 36.4526 46.8831 36.3068C46.7373 36.1609 46.5394 36.0789 46.3332 36.0789Z" fill="black" fill-opacity="0.85"/>
<path d="M46.3332 35.8612H37.9954V27.5234C37.9954 27.2593 37.8905 27.0061 37.7038 26.8194C37.5171 26.6327 37.2639 26.5278 36.9998 26.5278C36.7358 26.5278 36.4826 26.6327 36.2959 26.8194L36.4494 26.973L36.2959 26.8194C36.1091 27.0061 36.0043 27.2593 36.0043 27.5234V35.8612H27.6665C27.4024 35.8612 27.1492 35.9661 26.9625 36.1528C26.7768 36.3385 26.672 36.5901 26.6709 36.8526C26.6665 36.9834 26.69 37.1137 26.7396 37.2348C26.7898 37.3572 26.8657 37.4674 26.962 37.558C27.0584 37.6486 27.1731 37.7175 27.2984 37.76C27.42 37.8013 27.5488 37.8168 27.6766 37.8056H36.0043V46.1901C36.0043 46.4541 36.1091 46.7073 36.2959 46.894C36.4826 47.0807 36.7358 47.1856 36.9998 47.1856C37.2639 47.1856 37.5171 47.0807 37.7038 46.894C37.8905 46.7073 37.9954 46.4541 37.9954 46.1901V37.8523H46.3332C46.5972 37.8523 46.8504 37.7474 47.0371 37.5607C47.2238 37.374 47.3287 37.1208 47.3287 36.8567C47.3287 36.5927 47.2238 36.3395 47.0371 36.1528C46.8504 35.9661 46.5972 35.8612 46.3332 35.8612Z" stroke="black" stroke-opacity="0.85" stroke-width="0.435556"/>
</g>
</g>
<defs>
<filter id="filter0_d_207_6289" x="0.571429" y="0.571429" width="72.8571" height="72.8571" filterUnits="userSpaceOnUse" color-interpolation-filters="sRGB">
<feFlood flood-opacity="0" result="BackgroundImageFix"/>
<feColorMatrix in="SourceAlpha" type="matrix" values="0 0 0 0 0 0 0 0 0 0 0 0 0 0 0 0 0 0 127 0" result="hardAlpha"/>
<feOffset/>
<feGaussianBlur stdDeviation="3.21429"/>
<feComposite in2="hardAlpha" operator="out"/>
<feColorMatrix type="matrix" values="0 0 0 0 1 0 0 0 0 1 0 0 0 0 1 0 0 0 0.25 0"/>
<feBlend mode="normal" in2="BackgroundImageFix" result="effect1_dropShadow_207_6289"/>
<feBlend mode="normal" in="SourceGraphic" in2="effect1_dropShadow_207_6289" result="shape"/>
</filter>
<clipPath id="clip0_207_6289">
<rect width="28" height="28" fill="white" transform="translate(23 22.8569)"/>
</clipPath>
</defs>
</svg>
