<svg width="16" height="17" viewBox="0 0 16 17" fill="none" xmlns="http://www.w3.org/2000/svg">
<path d="M12.8538 12.646C12.9002 12.6925 12.9371 12.7476 12.9622 12.8083C12.9874 12.869 13.0003 12.9341 13.0003 12.9998C13.0003 13.0655 12.9874 13.1305 12.9622 13.1912C12.9371 13.2519 12.9002 13.3071 12.8538 13.3535C12.8073 13.4 12.7522 13.4368 12.6915 13.462C12.6308 13.4871 12.5657 13.5001 12.5 13.5001C12.4343 13.5001 12.3693 13.4871 12.3086 13.462C12.2479 13.4368 12.1927 13.4 12.1463 13.3535L8.00003 9.20666L3.85378 13.3535C3.75996 13.4474 3.63272 13.5001 3.50003 13.5001C3.36735 13.5001 3.2401 13.4474 3.14628 13.3535C3.05246 13.2597 2.99976 13.1325 2.99976 12.9998C2.99976 12.8671 3.05246 12.7399 3.14628 12.646L7.29316 8.49979L3.14628 4.35354C3.05246 4.25972 2.99976 4.13247 2.99976 3.99979C2.99976 3.86711 3.05246 3.73986 3.14628 3.64604C3.2401 3.55222 3.36735 3.49951 3.50003 3.49951C3.63272 3.49951 3.75996 3.55222 3.85378 3.64604L8.00003 7.79291L12.1463 3.64604C12.2401 3.55222 12.3674 3.49951 12.5 3.49951C12.6327 3.49951 12.76 3.55222 12.8538 3.64604C12.9476 3.73986 13.0003 3.86711 13.0003 3.99979C13.0003 4.13247 12.9476 4.25972 12.8538 4.35354L8.70691 8.49979L12.8538 12.646Z" fill="white"/>
</svg>
